<svg width="24" height="20" viewBox="0 0 24 20" fill="none" xmlns="http://www.w3.org/2000/svg">
<path d="M2.51224 8.84913C8.41892 6.27627 12.3567 4.57992 14.3255 3.76039C19.9537 1.42019 21.1217 1.01375 21.8845 1.00013C22.0523 0.997285 22.4258 1.03875 22.6696 1.23596C22.8721 1.40214 22.9292 1.62689 22.9577 1.78453C22.983 1.94216 23.0178 2.30144 22.9893 2.5819C22.6855 5.78531 21.3655 13.559 20.6944 17.147C20.4127 18.6652 19.8524 19.1742 19.3111 19.2239C18.1335 19.3321 17.2409 18.4465 16.1013 17.6997C14.3192 16.5307 13.3126 15.8033 11.5811 14.6628C9.5806 13.3447 10.8784 12.6201 12.0179 11.4362C12.3155 11.1263 17.5004 6.41143 17.5985 5.98378C17.6112 5.93029 17.6239 5.73087 17.5036 5.62577C17.3865 5.52036 17.2123 5.55645 17.0857 5.58494C16.9053 5.62546 14.0596 7.50825 8.53906 11.233C7.73188 11.7882 7.00069 12.0589 6.34228 12.0446C5.62056 12.0291 4.22787 11.6357 3.19278 11.2995C1.92661 10.887 0.916788 10.6689 1.00542 9.96842C1.04974 9.60377 1.55312 9.23056 2.51224 8.84913Z" stroke="black" stroke-width="1.2"/>
</svg>
