<svg width="33" height="32" viewBox="0 0 33 32" fill="none" xmlns="http://www.w3.org/2000/svg">
<path d="M16.0607 25.6675H12.4207C8.83402 25.6675 7.16736 24.0008 7.16736 20.4142V16.7742C7.16736 13.2008 8.83402 11.5342 12.4207 11.5342H16.0607C19.634 11.5342 21.314 13.2008 21.314 16.7875V20.4275C21.3007 24.0008 19.634 25.6675 16.0607 25.6675ZM12.4207 13.5342C9.92736 13.5342 9.16736 14.2942 9.16736 16.7875V20.4275C9.16736 22.9208 9.92736 23.6808 12.4207 23.6808H16.0607C18.554 23.6808 19.314 22.9208 19.314 20.4275V16.7875C19.314 14.2942 18.554 13.5342 16.0607 13.5342H12.4207Z" fill="#292D32"/>
<path d="M21.2466 20.4663H20.2999C19.7532 20.4663 19.2999 20.013 19.2999 19.4663V16.773C19.2999 14.2797 18.5399 13.5197 16.0466 13.5197H13.3666C12.8199 13.5197 12.3666 13.0663 12.3666 12.5197V11.5863C12.3666 8.01301 14.0332 6.33301 17.6199 6.33301H21.2599C24.8332 6.33301 26.5132 7.99967 26.5132 11.5863V15.2263C26.4999 18.7997 24.8332 20.4663 21.2466 20.4663ZM14.3666 11.533H16.0599C19.6332 11.533 21.3132 13.1997 21.3132 16.7863V18.4797C23.7666 18.4663 24.5132 17.7063 24.5132 15.2263V11.5863C24.5132 9.09301 23.7532 8.33301 21.2599 8.33301H17.6199C15.1399 8.33301 14.3799 9.07967 14.3666 11.533Z" fill="#292D32"/>
<path d="M20.8343 30.334C20.4743 30.334 20.1409 30.134 19.9676 29.8273C19.7943 29.5073 19.7943 29.134 19.9809 28.814L21.3809 26.4806C21.6609 26.0006 22.2743 25.854 22.7543 26.134C23.2343 26.414 23.3809 27.0273 23.1009 27.5073L22.7409 28.1073C26.4209 27.2406 29.1809 23.934 29.1809 19.9873C29.1809 19.4406 29.6343 18.9873 30.1809 18.9873C30.7276 18.9873 31.1809 19.4406 31.1809 19.9873C31.1676 25.694 26.5276 30.334 20.8343 30.334Z" fill="#292D32"/>
<path d="M3.49939 13.0003C2.95272 13.0003 2.49939 12.547 2.49939 12.0003C2.49939 6.30699 7.13939 1.66699 12.8327 1.66699C13.1927 1.66699 13.5261 1.86699 13.6994 2.17366C13.8727 2.49366 13.8727 2.86699 13.6861 3.18699L12.2861 5.52033C12.0061 5.98699 11.3927 6.14699 10.9127 5.85366C10.4461 5.57366 10.2861 4.96033 10.5794 4.48033L10.9394 3.88033C7.24606 4.74699 4.49939 8.05366 4.49939 12.0003C4.49939 12.547 4.04606 13.0003 3.49939 13.0003Z" fill="#292D32"/>
</svg>
