<svg width="24" height="24" viewBox="0 0 24 24" fill="none" xmlns="http://www.w3.org/2000/svg">
<g id="vuesax/outline/cake">
<g id="cake">
<path id="Vector" d="M22 22.75H2C1.59 22.75 1.25 22.41 1.25 22C1.25 21.59 1.59 21.25 2 21.25H22C22.41 21.25 22.75 21.59 22.75 22C22.75 22.41 22.41 22.75 22 22.75Z" fill="#292D32"/>
<path id="Vector_2" d="M20.8899 22.75C20.4799 22.75 20.1399 22.41 20.1399 22V13C20.1399 11.76 18.9799 10.75 17.5599 10.75H6.43986C5.01986 10.75 3.85986 11.76 3.85986 13V22C3.85986 22.41 3.51986 22.75 3.10986 22.75C2.69986 22.75 2.35986 22.41 2.35986 22V13C2.35986 10.93 4.18986 9.25 6.43986 9.25H17.5499C19.7999 9.25 21.6299 10.93 21.6299 13V22C21.6399 22.41 21.2999 22.75 20.8899 22.75Z" fill="#292D32"/>
<path id="Vector_3" d="M18.4401 10.75C18.0301 10.75 17.6901 10.41 17.6901 10V7.17C17.6901 6.39 16.9401 5.75 16.0301 5.75H7.98006C7.06006 5.75 6.32006 6.39 6.32006 7.17V10C6.32006 10.41 5.98006 10.75 5.57006 10.75C5.16006 10.75 4.81006 10.41 4.81006 10V7.17C4.81006 5.56 6.23006 4.25 7.97006 4.25H16.0201C17.7601 4.25 19.1801 5.56 19.1801 7.17V10C19.1901 10.41 18.8501 10.75 18.4401 10.75Z" fill="#292D32"/>
<path id="Vector_4" d="M17.3302 17.75C16.1702 17.75 15.2302 16.81 15.2302 15.65V15.34C15.2302 15.01 14.9602 14.74 14.6302 14.74C14.3002 14.74 14.0302 15.01 14.0302 15.34V15.65C14.0302 16.81 13.0902 17.75 11.9302 17.75C10.7702 17.75 9.8302 16.81 9.8302 15.65V15.34C9.8302 15.01 9.56019 14.74 9.2302 14.74C8.9002 14.74 8.6302 15.01 8.6302 15.34V15.65C8.6302 16.81 7.6902 17.75 6.5302 17.75C5.3702 17.75 4.4302 16.81 4.4302 15.65V15.32C4.4302 15 4.1702 14.73 3.8402 14.72H3.4702C3.0602 14.71 2.7202 14.37 2.7302 13.96C2.7402 13.55 3.0702 13.22 3.4802 13.22H3.4902H3.8602C5.0002 13.24 5.9302 14.18 5.9302 15.32V15.65C5.9302 15.98 6.2002 16.25 6.5302 16.25C6.8602 16.25 7.1302 15.98 7.1302 15.65V15.34C7.1302 14.18 8.0702 13.24 9.2302 13.24C10.3902 13.24 11.3302 14.18 11.3302 15.34V15.65C11.3302 15.98 11.6002 16.25 11.9302 16.25C12.2602 16.25 12.5302 15.98 12.5302 15.65V15.34C12.5302 14.18 13.4702 13.24 14.6302 13.24C15.7902 13.24 16.7302 14.18 16.7302 15.34V15.65C16.7302 15.98 17.0002 16.25 17.3302 16.25C17.6602 16.25 17.9302 15.98 17.9302 15.65V15.34C17.9302 14.18 18.8702 13.24 20.0302 13.24H20.4802C20.8902 13.24 21.2302 13.58 21.2302 13.99C21.2302 14.4 20.8902 14.74 20.4802 14.74H20.0302C19.7002 14.74 19.4302 15.01 19.4302 15.34V15.65C19.4302 16.81 18.4902 17.75 17.3302 17.75Z" fill="#292D32"/>
<path id="Vector_5" d="M8 5.75C7.59 5.75 7.25 5.41 7.25 5V3C7.25 2.59 7.59 2.25 8 2.25C8.41 2.25 8.75 2.59 8.75 3V5C8.75 5.41 8.41 5.75 8 5.75Z" fill="#292D32"/>
<path id="Vector_6" d="M16 5.75C15.59 5.75 15.25 5.41 15.25 5V3C15.25 2.59 15.59 2.25 16 2.25C16.41 2.25 16.75 2.59 16.75 3V5C16.75 5.41 16.41 5.75 16 5.75Z" fill="#292D32"/>
<path id="Vector_7" d="M12 5.75C11.59 5.75 11.25 5.41 11.25 5V2C11.25 1.59 11.59 1.25 12 1.25C12.41 1.25 12.75 1.59 12.75 2V5C12.75 5.41 12.41 5.75 12 5.75Z" fill="#292D32"/>
</g>
</g>
</svg>
