<svg width="32" height="32" viewBox="0 0 32 32" fill="none" xmlns="http://www.w3.org/2000/svg">
<path d="M25.3327 14.3337H22.666C19.4393 14.3337 17.666 12.5603 17.666 9.33366V6.66699C17.666 3.44033 19.4393 1.66699 22.666 1.66699H25.3327C28.5593 1.66699 30.3327 3.44033 30.3327 6.66699V9.33366C30.3327 12.5603 28.5593 14.3337 25.3327 14.3337ZM22.666 3.66699C20.5593 3.66699 19.666 4.56033 19.666 6.66699V9.33366C19.666 11.4403 20.5593 12.3337 22.666 12.3337H25.3327C27.4393 12.3337 28.3327 11.4403 28.3327 9.33366V6.66699C28.3327 4.56033 27.4393 3.66699 25.3327 3.66699H22.666Z" fill="black"/>
<path d="M9.33268 30.3337H6.66602C3.43935 30.3337 1.66602 28.5603 1.66602 25.3337V22.667C1.66602 19.4403 3.43935 17.667 6.66602 17.667H9.33268C12.5593 17.667 14.3327 19.4403 14.3327 22.667V25.3337C14.3327 28.5603 12.5593 30.3337 9.33268 30.3337ZM6.66602 19.667C4.55935 19.667 3.66602 20.5603 3.66602 22.667V25.3337C3.66602 27.4403 4.55935 28.3337 6.66602 28.3337H9.33268C11.4393 28.3337 12.3327 27.4403 12.3327 25.3337V22.667C12.3327 20.5603 11.4393 19.667 9.33268 19.667H6.66602Z" fill="black"/>
<path d="M7.99935 14.3337C4.50602 14.3337 1.66602 11.4937 1.66602 8.00033C1.66602 4.50699 4.50602 1.66699 7.99935 1.66699C11.4927 1.66699 14.3327 4.50699 14.3327 8.00033C14.3327 11.4937 11.4927 14.3337 7.99935 14.3337ZM7.99935 3.66699C5.61268 3.66699 3.66602 5.61366 3.66602 8.00033C3.66602 10.387 5.61268 12.3337 7.99935 12.3337C10.386 12.3337 12.3327 10.387 12.3327 8.00033C12.3327 5.61366 10.386 3.66699 7.99935 3.66699Z" fill="black"/>
<path d="M23.9993 30.3337C20.506 30.3337 17.666 27.4937 17.666 24.0003C17.666 20.507 20.506 17.667 23.9993 17.667C27.4927 17.667 30.3327 20.507 30.3327 24.0003C30.3327 27.4937 27.4927 30.3337 23.9993 30.3337ZM23.9993 19.667C21.6127 19.667 19.666 21.6137 19.666 24.0003C19.666 26.387 21.6127 28.3337 23.9993 28.3337C26.386 28.3337 28.3327 26.387 28.3327 24.0003C28.3327 21.6137 26.386 19.667 23.9993 19.667Z" fill="black"/>
</svg>
