<svg width="33" height="32" viewBox="0 0 33 32" fill="none" xmlns="http://www.w3.org/2000/svg">
<path d="M16.0603 25.6675H12.4203C8.83366 25.6675 7.16699 24.0008 7.16699 20.4142V16.7742C7.16699 13.2008 8.83366 11.5342 12.4203 11.5342H16.0603C19.6337 11.5342 21.3137 13.2008 21.3137 16.7875V20.4275C21.3003 24.0008 19.6337 25.6675 16.0603 25.6675ZM12.4203 13.5342C9.92699 13.5342 9.16699 14.2942 9.16699 16.7875V20.4275C9.16699 22.9208 9.92699 23.6808 12.4203 23.6808H16.0603C18.5537 23.6808 19.3137 22.9208 19.3137 20.4275V16.7875C19.3137 14.2942 18.5537 13.5342 16.0603 13.5342H12.4203Z" fill="#0500FF"/>
<path d="M21.2462 20.4663H20.2995C19.7529 20.4663 19.2995 20.013 19.2995 19.4663V16.773C19.2995 14.2797 18.5395 13.5197 16.0462 13.5197H13.3662C12.8195 13.5197 12.3662 13.0663 12.3662 12.5197V11.5863C12.3662 8.01301 14.0329 6.33301 17.6195 6.33301H21.2595C24.8329 6.33301 26.5129 7.99967 26.5129 11.5863V15.2263C26.4995 18.7997 24.8329 20.4663 21.2462 20.4663ZM14.3662 11.533H16.0595C19.6329 11.533 21.3129 13.1997 21.3129 16.7863V18.4797C23.7662 18.4663 24.5129 17.7063 24.5129 15.2263V11.5863C24.5129 9.09301 23.7529 8.33301 21.2595 8.33301H17.6195C15.1395 8.33301 14.3795 9.07967 14.3662 11.533Z" fill="#0500FF"/>
<path d="M20.8339 30.334C20.4739 30.334 20.1406 30.134 19.9672 29.8273C19.7939 29.5073 19.7939 29.134 19.9806 28.814L21.3806 26.4806C21.6606 26.0006 22.2739 25.854 22.7539 26.134C23.2339 26.414 23.3806 27.0273 23.1006 27.5073L22.7406 28.1073C26.4206 27.2406 29.1806 23.934 29.1806 19.9873C29.1806 19.4406 29.6339 18.9873 30.1806 18.9873C30.7272 18.9873 31.1806 19.4406 31.1806 19.9873C31.1672 25.694 26.5272 30.334 20.8339 30.334Z" fill="#0500FF"/>
<path d="M3.49902 13.0003C2.95236 13.0003 2.49902 12.547 2.49902 12.0003C2.49902 6.30699 7.13902 1.66699 12.8324 1.66699C13.1924 1.66699 13.5257 1.86699 13.699 2.17366C13.8724 2.49366 13.8724 2.86699 13.6857 3.18699L12.2857 5.52033C12.0057 5.98699 11.3924 6.14699 10.9124 5.85366C10.4457 5.57366 10.2857 4.96033 10.579 4.48033L10.939 3.88033C7.24569 4.74699 4.49902 8.05366 4.49902 12.0003C4.49902 12.547 4.04569 13.0003 3.49902 13.0003Z" fill="#0500FF"/>
</svg>
